<?xml version="1.0" encoding="UTF-8"?>
<svg width="33px" height="33px" viewBox="0 0 33 33" version="1.1" xmlns="http://www.w3.org/2000/svg" xmlns:xlink="http://www.w3.org/1999/xlink">
    <title>Risorsa 2</title>
    <defs>
        <filter id="filter-1">
            <feColorMatrix in="SourceGraphic" type="matrix" values="0 0 0 0 0.313725 0 0 0 0 0.313725 0 0 0 0 0.313725 0 0 0 1.000000 0"></feColorMatrix>
        </filter>
    </defs>
    <g id="Page-1" stroke="none" stroke-width="1" fill="none" fill-rule="evenodd">
        <g id="Add-option---color-swatch" transform="translate(-629.000000, -428.000000)">
            <g id="Risorsa-2" transform="translate(582.000000, 405.000000)" filter="url(#filter-1)">
                <g transform="translate(47.000000, 23.000000)">
                    <path d="M27.4889797,33 C24.4629969,32.988125 22.0129475,30.5796436 22.0008676,27.605 C21.9731895,26.1110004 22.6088822,24.6792505 23.7420759,23.6833333 L27.4889797,20 L31.2579241,23.6833333 C32.3911178,24.6792505 33.0268105,26.1110004 32.9991324,27.605 C32.986994,30.5880776 30.5235663,33 27.4889797,33 L27.4889797,33 Z M27.4889797,22.6 L25.0645125,25.005 C24.2842935,25.6472189 23.8458355,26.605039 23.8743195,27.605 C24.0220268,29.4659023 25.6012267,30.9018976 27.5,30.9018976 C29.3987733,30.9018976 30.9779732,29.4659023 31.1256805,27.605 C31.1541645,26.605039 30.7157065,25.6472189 29.9354875,25.005 L27.4889797,22.6 Z" id="Shape" fill="#706F6F" fill-rule="nonzero"></path>
                    <path d="M14.3000327,32 C14.0143228,31.994656 13.7343396,31.9199348 13.4848019,31.7824335 L0.881775458,24.5809831 C0.481938862,24.3941865 0.184316295,24.0447004 0.0665447234,23.6236906 C-0.0602834136,23.2144252 -0.00417126102,22.7711636 0.220777565,22.4053183 L10.3340453,5 L27.2555914,14.6599517 C27.8250233,14.967864 28.1134693,15.6154936 27.9584429,16.2380196 C27.8034165,16.8605456 27.2437008,17.3022293 26.5945935,17.3142627 C24.7654457,17.3866433 23.1017807,18.3805244 22.1879409,19.9468171 L15.5779619,31.0862208 C15.3395366,31.5876062 14.856836,31.9327597 14.3000327,32 Z M2.02750514,23.1232877 L14.2118996,30.0636583 L20.5795127,19.1853344 C21.589441,17.4379027 23.3034284,16.1962313 25.294631,15.7695407 L11.0831763,7.63255439 L2.02750514,23.1232877 Z" id="Shape" fill="#202020" fill-rule="nonzero"></path>
                    <path d="M16,15 L14.2180294,15 L14.2180294,5.01568268 C14.0825792,3.22112593 12.6822587,1.83864142 11,1.83864142 C9.31774126,1.83864142 7.91742084,3.22112593 7.78197065,5.01568268 L7.78197065,12.7338965 L6,12.7338965 L6,5.01568268 C6.17077201,2.19463702 8.35854699,0 11,0 C13.641453,0 15.829228,2.19463702 16,5.01568268 L16,15 Z" id="Path" fill="#706F6F" fill-rule="nonzero"></path>
                    <circle id="Oval" fill="#706F6F" fill-rule="nonzero" cx="15.5" cy="15.5" r="1.5"></circle>
                </g>
            </g>
        </g>
    </g>
</svg>