<?xml version="1.0" encoding="UTF-8"?>
<svg width="40px" height="37px" viewBox="0 0 40 37" version="1.1" xmlns="http://www.w3.org/2000/svg" xmlns:xlink="http://www.w3.org/1999/xlink">
    <title>Risorsa 1</title>
    <defs>
        <filter id="filter-1">
            <feColorMatrix in="SourceGraphic" type="matrix" values="0 0 0 0 0.313688 0 0 0 0 0.313747 0 0 0 0 0.313684 0 0 0 1.000000 0"></feColorMatrix>
        </filter>
    </defs>
    <g id="Page-1" stroke="none" stroke-width="1" fill="none" fill-rule="evenodd">
        <g id="Add-option---color-swatch" transform="translate(-309.000000, -562.000000)">
            <g id="Risorsa-1" transform="translate(268.000000, 540.000000)" filter="url(#filter-1)">
                <g transform="translate(41.000000, 22.000000)">
                    <path d="M0,37 L40,37 L40,0 L0,0 L0,37 Z M1.53846154,29.745098 L6.15384615,29.745098 L6.15384615,35.5490196 L1.53846154,35.5490196 L1.53846154,29.745098 Z M38.4615385,1.45098039 L38.4615385,8.70588235 L1.53846154,8.70588235 L1.53846154,1.45098039 L38.4615385,1.45098039 Z M11.5384615,10.1568627 L11.5384615,15.9607843 L6.92307692,15.9607843 L6.92307692,10.1568627 L11.5384615,10.1568627 Z M25.3846154,20.1795098 L27.3076923,22.4901961 L23.4615385,22.4901961 L25.3846154,20.1795098 Z M23.0769231,21.7973529 L23.0769231,17.3791176 L24.8961538,19.5882353 L23.0769231,21.7973529 Z M25.8730769,19.5882353 L27.6923077,17.3791176 L27.6923077,21.7973529 L25.8730769,19.5882353 Z M25.3846154,18.9969608 L23.4615385,16.6862745 L27.3076923,16.6862745 L25.3846154,18.9969608 Z M22.3076923,22.4901961 L17.6923077,22.4901961 L17.6923077,16.6862745 L22.3076923,16.6862745 L22.3076923,22.4901961 Z M16.9230769,22.4901961 L12.3076923,22.4901961 L12.3076923,16.6862745 L16.9230769,16.6862745 L16.9230769,22.4901961 Z M16.9230769,23.2156863 L16.9230769,29.0196078 L12.3076923,29.0196078 L12.3076923,23.2156863 L16.9230769,23.2156863 Z M17.6923077,23.2156863 L22.3076923,23.2156863 L22.3076923,29.0196078 L17.6923077,29.0196078 L17.6923077,23.2156863 Z M23.0769231,23.2156863 L27.6923077,23.2156863 L27.6923077,29.0196078 L23.0769231,29.0196078 L23.0769231,23.2156863 Z M28.4615385,23.2156863 L33.0769231,23.2156863 L33.0769231,29.0196078 L28.4615385,29.0196078 L28.4615385,23.2156863 Z M28.4615385,22.4901961 L28.4615385,16.6862745 L33.0769231,16.6862745 L33.0769231,22.4901961 L28.4615385,22.4901961 Z M28.4615385,15.9607843 L28.4615385,10.1568627 L33.0769231,10.1568627 L33.0769231,15.9607843 L28.4615385,15.9607843 Z M27.6923077,15.9607843 L23.0769231,15.9607843 L23.0769231,10.1568627 L27.6923077,10.1568627 L27.6923077,15.9607843 Z M22.3076923,15.9607843 L17.6923077,15.9607843 L17.6923077,10.1568627 L22.3076923,10.1568627 L22.3076923,15.9607843 Z M16.9230769,15.9607843 L12.3076923,15.9607843 L12.3076923,10.1568627 L16.9230769,10.1568627 L16.9230769,15.9607843 Z M11.5384615,16.6862745 L11.5384615,22.4901961 L6.92307692,22.4901961 L6.92307692,16.6862745 L11.5384615,16.6862745 Z M11.5384615,23.2156863 L11.5384615,29.0196078 L6.92307692,29.0196078 L6.92307692,23.2156863 L11.5384615,23.2156863 Z M11.5384615,29.745098 L11.5384615,35.5490196 L6.92307692,35.5490196 L6.92307692,29.745098 L11.5384615,29.745098 Z M12.3076923,29.745098 L16.9230769,29.745098 L16.9230769,35.5490196 L12.3076923,35.5490196 L12.3076923,29.745098 Z M17.6923077,29.745098 L22.3076923,29.745098 L22.3076923,35.5490196 L17.6923077,35.5490196 L17.6923077,29.745098 Z M23.0769231,29.745098 L27.6923077,29.745098 L27.6923077,35.5490196 L23.0769231,35.5490196 L23.0769231,29.745098 Z M28.4615385,29.745098 L33.0769231,29.745098 L33.0769231,35.5490196 L28.4615385,35.5490196 L28.4615385,29.745098 Z M33.8461538,29.745098 L38.4615385,29.745098 L38.4615385,35.5490196 L33.8461538,35.5490196 L33.8461538,29.745098 Z M33.8461538,29.0196078 L33.8461538,23.2156863 L38.4615385,23.2156863 L38.4615385,29.0196078 L33.8461538,29.0196078 Z M33.8461538,22.4901961 L33.8461538,16.6862745 L38.4615385,16.6862745 L38.4615385,22.4901961 L33.8461538,22.4901961 Z M33.8461538,15.9607843 L33.8461538,10.1568627 L38.4615385,10.1568627 L38.4615385,15.9607843 L33.8461538,15.9607843 Z M6.15384615,10.1568627 L6.15384615,15.9607843 L1.53846154,15.9607843 L1.53846154,10.1568627 L6.15384615,10.1568627 Z M6.15384615,16.6862745 L6.15384615,22.4901961 L1.53846154,22.4901961 L1.53846154,16.6862745 L6.15384615,16.6862745 Z M6.15384615,23.2156863 L6.15384615,29.0196078 L1.53846154,29.0196078 L1.53846154,23.2156863 L6.15384615,23.2156863 Z" id="Shape" fill="#000000" fill-rule="nonzero"></path>
                </g>
            </g>
        </g>
    </g>
</svg>