<?xml version="1.0" encoding="UTF-8"?>
<svg width="32px" height="32px" viewBox="0 0 32 32" version="1.1" xmlns="http://www.w3.org/2000/svg" xmlns:xlink="http://www.w3.org/1999/xlink">
    <title>Risorsa 3</title>
    <g id="Page-1" stroke="none" stroke-width="1" fill="none" fill-rule="evenodd">
        <g id="Add-option---color-swatch" transform="translate(-316.000000, -293.000000)" fill="#4E4E4E" fill-rule="nonzero">
            <g id="Group" transform="translate(268.000000, 270.000000)">
                <g id="Risorsa-3" transform="translate(48.000000, 23.000000)">
                    <path d="M24.8106667,32 L7.232,32 L7.232,28.0106667 L8.14933333,28.0106667 C10.4757897,28.1451099 12.4797728,26.3880631 12.6506667,24.064 L12.6506667,5.888 L8.128,5.888 C5.78572181,5.74174843 3.76505059,7.51460148 3.60533333,9.856 L3.60533333,10.6666667 L0,10.6666667 L0,0 L32,0 L32,10.6666667 L28.4373333,10.6666667 L28.4373333,9.856 C28.2775168,7.52342409 26.2701978,5.75393905 23.936,5.888 L19.392,5.888 L19.392,24.064 C19.5628363,26.3968784 21.5801396,28.157261 23.9146667,28.0106667 L24.8106667,28.0106667 L24.8106667,32 Z M9.04533333,30.1866667 L22.9973333,30.1866667 L22.9973333,29.8666667 C20.0167432,29.5815753 17.7035847,27.1409199 17.5786667,24.1493333 L17.5786667,4.07466667 L23.9786667,4.07466667 C26.9602019,3.98372892 29.5849327,6.02618153 30.2293333,8.93866667 L30.2293333,8.93866667 L30.2293333,1.81333333 L1.81333333,1.81333333 L1.81333333,8.93866667 C2.45418304,5.99673997 5.1199466,3.94338155 8.128,4.07466667 L14.528,4.07466667 L14.528,24.064 C14.4510407,27.1147718 12.0868423,29.6169584 9.04533333,29.8666667 L9.04533333,30.1866667 Z" id="Shape"></path>
                </g>
            </g>
        </g>
    </g>
</svg>