<?xml version="1.0" encoding="UTF-8"?>
<svg width="63px" height="35px" viewBox="0 0 63 35" version="1.1" xmlns="http://www.w3.org/2000/svg" xmlns:xlink="http://www.w3.org/1999/xlink">
    <title>Group 3</title>
    <defs>
        <filter id="filter-1">
            <feColorMatrix in="SourceGraphic" type="matrix" values="0 0 0 0 0.313688 0 0 0 0 0.313747 0 0 0 0 0.313684 0 0 0 1.000000 0"></feColorMatrix>
        </filter>
    </defs>
    <g id="Page-1" stroke="none" stroke-width="1" fill="none" fill-rule="evenodd">
        <g id="Add-option---color-swatch" transform="translate(-772.000000, -432.000000)">
            <g id="label-image" transform="translate(739.000000, 406.000000)">
                <g id="Group-3" transform="translate(34.000000, 26.000000)">
                    <g filter="url(#filter-1)" id="Risorsa-4">
                        <g transform="translate(34.000000, 0.000000)">
                            <path d="M28,23 L0,23 L0,0 L28,0 L28,23 Z M1.58666667,21.3856317 L26.4506667,21.3856317 L26.4506667,1.61436829 L1.58666667,1.61436829 L1.58666667,21.3856317 Z" id="Shape" fill="#706F6F" fill-rule="nonzero"></path>
                            <path d="M7.52016469,10.9999426 C6.10276507,11.0080305 4.8203959,10.1604868 4.2723267,8.85332277 C3.7242575,7.54615873 4.01871299,6.03749403 5.01808989,5.03234932 C6.01746679,4.02720462 7.52442272,3.72406124 8.83473554,4.26458243 C10.1450484,4.80510363 11,6.08255516 11,7.49996558 C11,9.42508936 9.4452738,10.9888205 7.52016469,10.9999426 L7.52016469,10.9999426 Z M7.52016469,5.70977721 C6.79265678,5.69342476 6.12763842,6.11906958 5.837829,6.78655571 C5.54801958,7.45404185 5.69109201,8.23053763 6.19976766,8.75090235 C6.70844331,9.27126706 7.48149426,9.43194662 8.15539969,9.1573828 C8.82930512,8.88281897 9.26995591,8.22765076 9.27013973,7.49996558 C9.27038543,6.52677151 8.49312169,5.73164671 7.52016469,5.70977721 Z" id="Shape" fill="#706F6F" fill-rule="nonzero"></path>
                            <path d="M28,23 L14.3361884,23 L10,18.8214286 L19.1541756,10 L28,18.5614286 L28,23 Z M14.9721627,21.4214286 L26.3618844,21.4214286 L26.3618844,19.23 L19.1541756,12.2285714 L12.3126338,18.8214286 L14.9721627,21.4214286 Z" id="Shape" fill="#706F6F" fill-rule="nonzero"></path>
                            <path d="M8.39599555,14.5740741 L15.6384872,21.6666667 L17,23 L0.567296997,23 L0,21.6666667 L7.33704116,14.5740741 L7.90433815,14 L8.49054505,14.5740741 L8.39599555,14.5740741 Z M13.1234705,21.4259259 L7.80978865,16.2407407 L2.51501669,21.4259259 L13.1234705,21.4259259 Z" id="Shape" fill="#706F6F"></path>
                        </g>
                    </g>
                    <g id="Risorsa-5" transform="translate(0.000000, 10.000000)" stroke="#505050" stroke-width="2">
                        <rect id="Rectangle" x="0" y="0" width="30" height="24" rx="2"></rect>
                    </g>
                    <text id="XL" font-family="AvenirNextCyr-Bold, Avenir Next Cyr" font-size="12" font-weight="bold" letter-spacing="0.342857143" fill="#505050">
                        <tspan x="8" y="27">XL</tspan>
                    </text>
                </g>
            </g>
        </g>
    </g>
</svg>