<?xml version="1.0" encoding="UTF-8"?>
<svg width="38px" height="34px" viewBox="0 0 38 34" version="1.1" xmlns="http://www.w3.org/2000/svg" xmlns:xlink="http://www.w3.org/1999/xlink">
    <title>Group 4</title>
    <g id="Page-1" stroke="none" stroke-width="1" fill="none" fill-rule="evenodd">
        <g id="Add-option---color-swatch" transform="translate(-938.000000, -433.000000)" stroke="#505050" stroke-width="2">
            <g id="product" transform="translate(896.000000, 409.000000)">
                <g id="Group-4" transform="translate(43.000000, 25.000000)">
                    <g id="Risorsa-5">
                        <rect id="Rectangle" x="0" y="0" width="36" height="32" rx="2"></rect>
                    </g>
                    <path d="M25.0893621,25.9999941 L11.9128463,25.9999941 C11.7806822,25.9996768 11.6567887,25.93523 11.5801251,25.8269196 C11.5034616,25.7186092 11.4834464,25.5797415 11.5263735,25.4539846 C11.5434887,25.402883 13.2787518,20.2988325 13.465363,17.5110178 C13.6078058,15.3930784 12.7089804,12.5119478 12.2805477,11.2855092 L11.3668154,12.2025609 C11.2068547,12.3633855 10.947619,12.3633855 10.7876582,12.2025609 L8.11989138,9.51861572 C7.96003621,9.35768491 7.96003621,9.09687715 8.11989138,8.93594634 L11.9128463,5.12054501 C11.9894757,5.0435466 12.0932939,5.00000588 12.2015968,5.00000588 L15.4512813,5.00000588 C15.677531,5.00000588 15.8609425,5.18453572 15.8609425,5.41215742 C15.8245355,6.12820164 16.0914101,6.82623521 16.5953885,7.33316399 C17.0993668,7.84009276 17.7932485,8.10844004 18.5049689,8.07166268 C19.2158571,8.10754779 19.9085652,7.83867857 20.4112922,7.33173813 C20.9140193,6.82479769 21.1796739,6.12727228 21.1423701,5.41215742 C21.1423685,5.30246358 21.1858321,5.19729463 21.2631368,5.11993816 C21.3404415,5.04258169 21.4452087,4.99942053 21.5542397,5.00000588 L24.8000595,5.00000588 C24.9087451,5.00000588 25.0130141,5.04327479 25.0899142,5.12054501 L28.8801086,8.93650179 C29.0399638,9.0974326 29.0399638,9.35824036 28.8801086,9.51917117 L26.2139981,12.2031163 C26.0540373,12.3639409 25.7948016,12.3639409 25.6348409,12.2031163 L24.7216608,11.2843983 C24.2943322,12.5136141 23.3932984,15.3919675 23.5368454,17.5099069 C23.7234566,20.3010543 25.4587197,25.4034384 25.4758349,25.4528737 C25.518762,25.5786306 25.4987468,25.7174983 25.4220833,25.8258087 C25.3454197,25.9341191 25.2215262,25.9985659 25.0893621,25.9988832 L25.0893621,25.9999941 Z" id="Path_1415-path" fill-rule="nonzero"></path>
                </g>
            </g>
        </g>
    </g>
</svg>